<?xml version="1.0" standalone="no"?>
<!DOCTYPE svg PUBLIC "-//W3C//DTD SVG 20010904//EN"
 "http://www.w3.org/TR/2001/REC-SVG-20010904/DTD/svg10.dtd">
<svg version="1.0" xmlns="http://www.w3.org/2000/svg"
 width="500.000000pt" height="500.000000pt" viewBox="0 0 500.000000 500.000000"
 preserveAspectRatio="xMidYMid meet">

<g transform="translate(0.000000,500.000000) scale(0.100000,-0.100000)"
fill="#000000" stroke="none">
<path d="M0 2500 l0 -2500 2500 0 2500 0 0 2500 0 2500 -2500 0 -2500 0 0
-2500z m1746 1435 c27 -20 141 -101 254 -180 113 -80 253 -178 311 -220 133
-94 167 -109 217 -95 21 5 76 36 122 68 195 134 491 339 637 441 54 38 65 24
84 -105 10 -60 27 -174 38 -254 12 -80 38 -244 58 -365 l36 -220 126 -250
c225 -448 234 -466 235 -505 1 -47 -20 -77 -162 -234 -59 -65 -163 -185 -232
-266 -69 -82 -204 -237 -300 -346 -96 -108 -206 -234 -244 -278 -37 -45 -80
-88 -95 -96 -21 -12 -81 -16 -314 -18 -273 -3 -290 -2 -330 17 -41 20 -81 63
-456 489 -51 59 -130 149 -175 201 -44 52 -133 154 -196 226 -63 73 -143 165
-177 204 -36 42 -63 82 -63 94 0 12 11 38 24 57 13 19 101 189 195 378 139
276 175 354 183 405 5 34 25 159 44 277 19 118 47 298 61 400 14 102 27 191
29 198 6 22 40 13 90 -23z"/>
<path d="M3071 3376 c-61 -107 -111 -197 -111 -200 0 -18 308 -152 320 -140 6
6 -5 98 -30 244 -49 288 -50 290 -60 290 -4 0 -58 -88 -119 -194z"/>
<path d="M1805 3538 c-2 -13 -14 -81 -26 -153 -12 -71 -30 -175 -39 -230 -20
-116 -18 -129 19 -120 57 14 291 136 291 151 0 9 -13 33 -29 53 -15 20 -43 63
-61 96 -18 33 -43 76 -55 95 -12 19 -34 56 -49 83 -30 52 -43 59 -51 25z"/>
<path d="M1860 2699 c-52 -33 -165 -104 -250 -157 l-155 -97 -34 -69 c-18 -38
-33 -79 -33 -91 -1 -29 113 -171 263 -330 19 -19 20 -19 88 53 94 98 113 95
130 -19 21 -142 42 -266 52 -301 6 -24 39 -71 92 -131 45 -51 123 -140 172
-196 50 -57 102 -109 116 -117 36 -18 108 -34 114 -24 7 11 -32 57 -112 135
-45 44 -73 79 -73 92 0 48 113 83 270 83 141 0 271 -33 278 -71 1 -9 -33 -53
-78 -100 -100 -104 -117 -126 -102 -141 7 -7 26 -5 64 8 60 21 112 69 223 204
39 46 95 112 126 146 31 33 59 70 62 80 14 47 58 257 69 334 11 75 16 85 35
88 16 2 35 -14 78 -67 32 -39 64 -71 73 -71 18 0 61 45 181 188 127 152 122
138 81 222 -39 81 -58 101 -160 165 -41 26 -126 82 -187 124 -151 102 -185
122 -205 119 -10 -2 -110 -93 -224 -203 -205 -198 -208 -201 -251 -293 -32
-68 -48 -92 -60 -90 -9 2 -37 44 -62 94 -43 85 -57 101 -206 245 -88 84 -180
175 -205 201 -25 27 -52 48 -60 48 -8 0 -58 -28 -110 -61z m161 -313 c50 -19
101 -44 113 -55 32 -31 100 -166 93 -185 -8 -20 -55 -21 -100 -3 -18 8 -55 19
-84 26 -29 7 -58 20 -65 28 -15 18 -67 154 -75 196 -7 36 5 35 118 -7z m1076
18 c10 -26 -51 -183 -83 -214 -20 -18 -129 -54 -201 -66 -40 -6 -43 -5 -43 16
0 12 9 35 20 50 12 16 31 53 44 82 30 68 40 76 145 115 100 37 110 38 118 17z"/>
</g>
</svg>
